<?xml version="1.0" encoding="UTF-8" standalone="no"?>
<!-- Created with Inkscape (http://www.inkscape.org/) -->

<svg
   xmlns:dc="http://purl.org/dc/elements/1.1/"
   xmlns:cc="http://creativecommons.org/ns#"
   xmlns:rdf="http://www.w3.org/1999/02/22-rdf-syntax-ns#"
   xmlns:svg="http://www.w3.org/2000/svg"
   xmlns="http://www.w3.org/2000/svg"
   xmlns:sodipodi="http://sodipodi.sourceforge.net/DTD/sodipodi-0.dtd"
   xmlns:inkscape="http://www.inkscape.org/namespaces/inkscape"
   width="2408.74"
   height="520"
   id="svg8181"
   version="1.1"
   inkscape:version="0.48.4 r9939"
   sodipodi:docname="Neues Dokument 6">
  <defs
     id="defs8183" />
  <sodipodi:namedview
     id="base"
     pagecolor="#ffffff"
     bordercolor="#666666"
     borderopacity="1.0"
     inkscape:pageopacity="0.0"
     inkscape:pageshadow="2"
     inkscape:zoom="0.64887697"
     inkscape:cx="1204.37"
     inkscape:cy="260"
     inkscape:document-units="px"
     inkscape:current-layer="layer1"
     showgrid="false"
     fit-margin-top="0"
     fit-margin-left="0"
     fit-margin-right="0"
     fit-margin-bottom="0"
     inkscape:window-width="1680"
     inkscape:window-height="990"
     inkscape:window-x="-4"
     inkscape:window-y="-4"
     inkscape:window-maximized="1" />
  <metadata
     id="metadata8186">
    <rdf:RDF>
      <cc:Work
         rdf:about="">
        <dc:format>image/svg+xml</dc:format>
        <dc:type
           rdf:resource="http://purl.org/dc/dcmitype/StillImage" />
        <dc:title></dc:title>
      </cc:Work>
    </rdf:RDF>
  </metadata>
  <g
     inkscape:label="Ebene 1"
     inkscape:groupmode="layer"
     id="layer1"
     transform="translate(-194.40976,68.013679)">
    <path
       inkscape:connector-curvature="0"
       d="m 1548.7591,-33.268664 c 26.6192,12.142118 50.5921,28.9542834 70.9846,49.346816 l -85.7731,84.994828 c -22.2606,-21.949211 -53.0829,-35.648012 -86.8629,-35.648012 -68.6496,0 -124.2232,55.573542 -124.2232,124.067552 0,68.494 55.5736,123.91187 124.2232,123.91187 33.78,0 64.4467,-13.54313 86.7072,-35.49234 l 85.4618,85.46183 c -20.3925,20.0812 -44.2097,36.7377 -70.5176,48.87982 l 118.7748,0 0,-445.522364 z M 1201.9303,189.49252 c 0,-99.00497 58.2199,-184.1554725 142.9034,-222.761184 l -186.1791,0 0,445.522364 186.6461,0 C 1260.7729,373.49232 1201.9303,288.34182 1201.9303,189.49252 m -361.77289,222.76118 202.05739,0 L 840.15741,170.501 z m 191.47189,-445.522364 -203.14701,0 203.14701,242.998044 z M 665.65337,16.078152 580.03586,101.07298 C 557.46398,79.123769 526.79734,65.424968 492.86168,65.424968 c -68.64968,0 -124.06755,55.573542 -124.06755,124.067552 0,68.494 55.41787,123.91187 124.06755,123.91187 33.93566,0 64.44663,-13.54313 87.01851,-35.49234 l 85.1505,85.46183 c -20.23686,20.0812 -44.05409,36.7377 -70.36202,48.87982 l 118.61916,0 0,-445.522364 -118.61916,0 c 26.61926,12.142118 50.59216,28.9542834 70.9847,49.346816 M 247.83995,189.49252 c 0,-99.00497 58.2199,-184.1554725 142.74773,-222.761184 l -186.17916,0 0,445.522364 186.64616,0 C 306.52685,373.49232 247.83995,288.34182 247.83995,189.49252"
       style="fill:#231f20;fill-opacity:1;fill-rule:nonzero;stroke:none"
       id="path2714"
       sodipodi:nodetypes="cccsssccccccccccccccccccccccsssccccccccccccc" />
    <g
       id="g2716"
       transform="matrix(155.66819,0,0,-155.66819,1780.8603,21.844102)">
      <path
         inkscape:connector-curvature="0"
         d="m 0,0 c -0.029,-0.036 -0.078,-0.064 -0.14,-0.064 -0.062,0 -0.114,0.029 -0.143,0.064 -0.03,0.039 -0.044,0.09 -0.044,0.15 0,0.059 0.014,0.11 0.044,0.149 0.029,0.035 0.081,0.064 0.143,0.064 0.062,0 0.111,-0.029 0.14,-0.064 C 0.018,0.274 0.03,0.242 0.032,0.21 l -0.097,0 c 0,0.015 -0.006,0.028 -0.012,0.038 -0.012,0.018 -0.034,0.03 -0.063,0.03 -0.027,0 -0.046,-0.011 -0.06,-0.025 -0.023,-0.026 -0.027,-0.065 -0.027,-0.103 0,-0.039 0.004,-0.077 0.027,-0.104 0.014,-0.014 0.033,-0.025 0.06,-0.025 0.029,0 0.051,0.012 0.063,0.03 0.006,0.01 0.012,0.023 0.012,0.038 l 0.097,0 C 0.03,0.056 0.018,0.025 0,0 M 0.341,0.261 C 0.328,0.275 0.307,0.285 0.279,0.285 0.249,0.285 0.224,0.272 0.211,0.253 0.197,0.235 0.19,0.216 0.189,0.189 l 0.178,0 C 0.366,0.22 0.356,0.244 0.341,0.261 m 0.123,-0.143 -0.274,0 C 0.189,0.087 0.2,0.056 0.22,0.038 0.233,0.025 0.254,0.012 0.281,0.012 c 0.028,0 0.045,0.006 0.059,0.021 0.009,0.008 0.016,0.019 0.019,0.033 l 0.096,0 C 0.452,0.043 0.435,0.01 0.42,-0.008 0.385,-0.049 0.334,-0.065 0.282,-0.065 c -0.056,0 -0.097,0.019 -0.129,0.05 -0.04,0.038 -0.063,0.096 -0.063,0.162 0,0.066 0.02,0.124 0.06,0.164 0.03,0.032 0.074,0.052 0.13,0.052 0.06,0 0.115,-0.024 0.149,-0.075 0.03,-0.045 0.037,-0.091 0.035,-0.143 0,0 0,-0.018 0,-0.027 m 0.342,-0.174 0,0.251 C 0.806,0.243 0.791,0.272 0.739,0.272 0.704,0.272 0.681,0.25 0.668,0.221 0.654,0.188 0.655,0.146 0.655,0.111 l 0,-0.167 -0.099,0 0,0.409 0.082,0 0.008,-0.052 c 0.024,0.042 0.073,0.062 0.12,0.062 0.087,0 0.139,-0.061 0.139,-0.146 l 0,-0.273 -0.099,0 z m 0.361,-0.005 c -0.082,0 -0.122,0.047 -0.122,0.126 l 0,0.207 -0.076,0 0,0.081 0.076,0 0,0.104 0.098,0.024 0,-0.128 0.102,0 0,-0.081 -0.102,0 0,-0.199 c 0,-0.031 0.013,-0.044 0.045,-0.044 0.02,0 0.037,0 0.063,0.003 l 0,-0.082 C 1.224,-0.057 1.196,-0.061 1.167,-0.061 M 1.539,0.266 C 1.469,0.266 1.434,0.217 1.434,0.15 l 0,-0.206 -0.1,0 0,0.409 0.084,0 0.009,-0.062 c 0.019,0.047 0.067,0.068 0.115,0.068 0.01,0 0.021,-0.001 0.031,-0.003 l 0,-0.094 C 1.562,0.264 1.55,0.266 1.539,0.266 M 1.86,0.261 C 1.846,0.275 1.826,0.285 1.797,0.285 1.768,0.285 1.743,0.272 1.729,0.253 1.715,0.235 1.709,0.216 1.708,0.189 l 0.177,0 C 1.884,0.22 1.875,0.244 1.86,0.261 m 0.123,-0.143 -0.274,0 C 1.708,0.087 1.719,0.056 1.739,0.038 1.753,0.025 1.773,0.012 1.799,0.012 c 0.029,0 0.045,0.006 0.06,0.021 0.009,0.008 0.016,0.019 0.019,0.033 l 0.095,0 C 1.97,0.043 1.954,0.01 1.939,-0.008 1.904,-0.049 1.853,-0.065 1.801,-0.065 c -0.056,0 -0.097,0.019 -0.129,0.05 -0.04,0.038 -0.063,0.096 -0.063,0.162 0,0.066 0.019,0.124 0.059,0.164 0.031,0.032 0.075,0.052 0.13,0.052 0.061,0 0.116,-0.024 0.15,-0.075 0.03,-0.045 0.037,-0.091 0.036,-0.143 0,0 -10e-4,-0.018 -10e-4,-0.027 m 0.498,-0.174 0,0.251 C 2.481,0.243 2.466,0.272 2.414,0.272 2.379,0.272 2.356,0.25 2.343,0.221 2.329,0.188 2.33,0.146 2.33,0.111 l 0,-0.167 -0.098,0 0,0.409 0.081,0 0.007,-0.052 c 0.025,0.042 0.074,0.062 0.121,0.062 0.087,0 0.138,-0.061 0.138,-0.146 l 0,-0.273 -0.098,0 z M 2.92,0.126 2.817,0.118 C 2.786,0.116 2.758,0.097 2.758,0.064 c 0,-0.031 0.027,-0.051 0.058,-0.051 0.061,0 0.104,0.033 0.104,0.094 l 0,0.019 z m 0.083,-0.189 c -0.043,0 -0.066,0.028 -0.069,0.059 -0.019,-0.034 -0.066,-0.062 -0.124,-0.062 -0.097,0 -0.149,0.062 -0.149,0.128 0,0.078 0.061,0.123 0.139,0.128 l 0.12,0.009 0,0.025 C 2.92,0.263 2.907,0.289 2.851,0.289 2.806,0.289 2.779,0.268 2.777,0.23 l -0.095,0 C 2.687,0.322 2.76,0.363 2.851,0.363 2.922,0.363 2.981,0.341 3.004,0.279 3.015,0.254 3.017,0.225 3.017,0.198 l 0,-0.152 c 0,-0.019 0.006,-0.027 0.022,-0.027 0.006,0 0.013,0.002 0.013,0.002 l 0,-0.072 C 3.035,-0.059 3.027,-0.063 3.003,-0.063 m 0.277,0.002 c -0.083,0 -0.124,0.047 -0.124,0.126 l 0,0.207 -0.074,0 0,0.081 0.074,0 0,0.104 0.099,0.024 0,-0.128 0.103,0 0,-0.081 -0.103,0 0,-0.199 c 0,-0.031 0.014,-0.044 0.046,-0.044 0.02,0 0.037,0 0.063,0.003 l 0,-0.082 C 3.337,-0.057 3.309,-0.061 3.28,-0.061 m 0.169,0.414 0.099274,0 0,-0.40851 -0.099274,0 0,0.40851 z m -0.003,0.158 0.10541,0 0,-0.10132 -0.10541,0 0,0.10132 z M 3.897,0.252 C 3.884,0.266 3.861,0.277 3.835,0.277 3.808,0.277 3.786,0.266 3.773,0.252 3.75,0.226 3.743,0.187 3.743,0.148 3.743,0.11 3.75,0.071 3.773,0.046 3.786,0.031 3.808,0.019 3.835,0.019 c 0.026,0 0.049,0.012 0.062,0.027 0.024,0.025 0.029,0.064 0.029,0.102 0,0.039 -0.005,0.078 -0.029,0.104 M 3.978,-0.002 C 3.949,-0.037 3.897,-0.066 3.835,-0.066 3.773,-0.066 3.72,-0.037 3.692,-0.002 3.662,0.036 3.644,0.08 3.644,0.148 3.644,0.218 3.662,0.261 3.692,0.3 3.72,0.334 3.773,0.363 3.835,0.363 3.897,0.363 3.949,0.334 3.978,0.3 4.009,0.261 4.026,0.218 4.026,0.148 4.026,0.08 4.009,0.036 3.978,-0.002 m 0.392,-0.054 0,0.251 C 4.37,0.243 4.355,0.272 4.302,0.272 4.268,0.272 4.245,0.25 4.232,0.221 4.218,0.188 4.219,0.146 4.219,0.111 l 0,-0.167 -0.099,0 0,0.409 0.082,0 0.007,-0.052 c 0.025,0.042 0.074,0.062 0.121,0.062 0.087,0 0.138,-0.061 0.138,-0.146 l 0,-0.273 -0.098,0 z M 4.809,0.126 4.706,0.118 C 4.675,0.116 4.646,0.097 4.646,0.064 c 0,-0.031 0.028,-0.051 0.059,-0.051 0.061,0 0.104,0.033 0.104,0.094 l 0,0.019 z m 0.083,-0.189 c -0.043,0 -0.066,0.028 -0.069,0.059 -0.019,-0.034 -0.066,-0.062 -0.124,-0.062 -0.097,0 -0.149,0.062 -0.149,0.128 0,0.078 0.062,0.123 0.139,0.128 l 0.12,0.009 0,0.025 C 4.809,0.263 4.796,0.289 4.74,0.289 4.695,0.289 4.668,0.268 4.666,0.23 l -0.095,0 C 4.576,0.322 4.648,0.363 4.74,0.363 4.81,0.363 4.87,0.341 4.893,0.279 4.903,0.254 4.905,0.225 4.905,0.198 l 0,-0.152 c 0,-0.019 0.007,-0.027 0.023,-0.027 0.006,0 0.012,0.002 0.012,0.002 l 0,-0.072 C 4.924,-0.059 4.916,-0.063 4.892,-0.063 m 0.243,0.003 c -0.066,0 -0.111,0.031 -0.111,0.109 l 0,0.464 0.099,0 0,-0.447 c 0,-0.023 0.005,-0.039 0.039,-0.039 0.009,0 0.011,0.001 0.016,0.001 l 0,-0.083 C 5.159,-0.058 5.155,-0.06 5.135,-0.06 m -5.27,-0.885 c -0.031,0 -0.052,-0.014 -0.066,-0.032 -0.021,-0.027 -0.026,-0.064 -0.026,-0.099 0,-0.036 0.005,-0.073 0.026,-0.1 0.014,-0.017 0.035,-0.032 0.066,-0.032 0.077,0 0.093,0.073 0.093,0.132 0,0.059 -0.016,0.131 -0.093,0.131 m 0.101,-0.337 -0.006,0.045 c -0.025,-0.037 -0.07,-0.054 -0.115,-0.054 -0.041,0 -0.074,0.015 -0.1,0.035 -0.048,0.04 -0.072,0.101 -0.072,0.178 0,0.081 0.024,0.142 0.073,0.182 0.026,0.021 0.058,0.034 0.1,0.034 0.051,0 0.089,-0.017 0.107,-0.039 l 0,0.188 0.098,0 0,-0.569"
         style="fill:#231f20;fill-opacity:1;fill-rule:nonzero;stroke:none"
         id="path2718" />
    </g>
    <g
       id="g2720"
       transform="matrix(155.66819,0,0,-155.66819,1845.1513,221.24883)">
      <path
         inkscape:connector-curvature="0"
         d="m 0,0 -0.007,0.053 c -0.02,-0.04 -0.066,-0.063 -0.117,-0.063 -0.088,0 -0.142,0.059 -0.142,0.146 l 0,0.273 0.098,0 0,-0.251 c 0,-0.047 0.02,-0.078 0.072,-0.078 0.022,0 0.038,0.009 0.05,0.02 0.023,0.023 0.03,0.06 0.03,0.093 l 0,0.216 0.098,0 L 0.082,0 0,0 z M 0.626,0.056 C 0.597,0.02 0.548,-0.009 0.485,-0.009 c -0.061,0 -0.113,0.03 -0.142,0.065 -0.031,0.039 -0.044,0.09 -0.044,0.149 0,0.06 0.013,0.111 0.044,0.15 C 0.372,0.39 0.424,0.419 0.485,0.419 0.548,0.419 0.597,0.39 0.626,0.355 0.644,0.33 0.655,0.298 0.657,0.266 l -0.097,0 C 0.56,0.281 0.555,0.293 0.549,0.304 0.536,0.322 0.515,0.334 0.485,0.334 0.459,0.334 0.439,0.323 0.426,0.309 0.402,0.283 0.398,0.244 0.398,0.205 0.398,0.166 0.402,0.128 0.426,0.102 0.439,0.088 0.459,0.076 0.485,0.076 c 0.03,0 0.051,0.013 0.064,0.031 0.006,0.01 0.011,0.023 0.011,0.038 l 0.097,0 C 0.655,0.112 0.644,0.08 0.626,0.056 m 0.12,0.353 0.099304,0 0,-0.40854 -0.099304,0 0,0.40854 z m -0.004,0.158 0.10538,0 0,-0.10141 -0.10538,0 0,0.10141 z M 1.219,0 l 0,0.251 C 1.219,0.299 1.203,0.328 1.151,0.328 1.116,0.328 1.094,0.306 1.081,0.276 1.066,0.244 1.067,0.202 1.067,0.167 l 0,-0.167 -0.098,0 0,0.409 0.082,0 0.007,-0.053 c 0.024,0.043 0.074,0.063 0.121,0.063 0.087,0 0.138,-0.062 0.138,-0.147 L 1.317,0 1.219,0 z M 1.536,0.445 1.504,0.496 1.65,0.605 1.694,0.533 1.536,0.445 z M 1.656,0.317 C 1.643,0.331 1.622,0.341 1.594,0.341 1.564,0.341 1.539,0.328 1.525,0.309 1.511,0.291 1.504,0.272 1.503,0.245 l 0.177,0 C 1.68,0.276 1.671,0.3 1.656,0.317 m 0.123,-0.143 -0.275,0 C 1.503,0.142 1.515,0.112 1.534,0.094 1.548,0.081 1.568,0.068 1.595,0.068 c 0.028,0 0.046,0.006 0.06,0.02 0.008,0.009 0.015,0.02 0.019,0.034 l 0.094,0 C 1.766,0.098 1.75,0.066 1.734,0.047 1.7,0.007 1.649,-0.011 1.596,-0.011 1.541,-0.011 1.5,0.01 1.468,0.041 1.427,0.079 1.405,0.137 1.405,0.203 c 0,0.066 0.02,0.124 0.059,0.164 0.03,0.032 0.074,0.052 0.13,0.052 0.061,0 0.116,-0.024 0.15,-0.075 0.03,-0.046 0.037,-0.091 0.035,-0.143 0,0 0,-0.018 0,-0.027 M 2.353,0 l 0,0.254 c 0,0.05 -0.014,0.08 -0.063,0.08 -0.056,0 -0.081,-0.06 -0.081,-0.111 l 0,-0.223 -0.097,0 0,0.254 c 0,0.05 -0.013,0.08 -0.062,0.08 -0.057,0 -0.081,-0.06 -0.081,-0.111 L 1.969,0 1.87,0 l 0,0.409 0.082,0 0.009,-0.055 c 0.022,0.038 0.061,0.065 0.115,0.065 0.059,0 0.097,-0.025 0.118,-0.067 0.025,0.043 0.069,0.067 0.123,0.067 0.088,0 0.133,-0.058 0.133,-0.143 L 2.45,0 2.353,0 z M 2.791,0.182 2.688,0.173 C 2.657,0.171 2.628,0.153 2.628,0.12 c 0,-0.031 0.028,-0.051 0.058,-0.051 0.062,0 0.105,0.033 0.105,0.094 l 0,0.019 z m 0.083,-0.189 c -0.043,0 -0.067,0.028 -0.07,0.058 C 2.786,0.018 2.739,-0.01 2.68,-0.01 c -0.097,0 -0.148,0.061 -0.148,0.128 0,0.078 0.061,0.123 0.139,0.128 l 0.12,0.008 0,0.026 c 0,0.039 -0.013,0.064 -0.07,0.064 -0.045,0 -0.071,-0.02 -0.073,-0.058 l -0.096,0 C 2.557,0.378 2.63,0.419 2.721,0.419 2.792,0.419 2.851,0.397 2.875,0.335 2.885,0.31 2.887,0.281 2.887,0.253 l 0,-0.151 c 0,-0.02 0.006,-0.027 0.023,-0.027 0.006,0 0.012,0.002 0.012,0.002 l 0,-0.073 C 2.906,-0.003 2.897,-0.007 2.874,-0.007 M 3.372,0.317 C 3.359,0.331 3.339,0.34 3.31,0.34 3.28,0.34 3.256,0.328 3.242,0.309 3.228,0.291 3.222,0.272 3.221,0.245 l 0.177,0 C 3.397,0.276 3.388,0.299 3.372,0.317 m 0.123,-0.143 -0.273,0 C 3.221,0.143 3.231,0.112 3.252,0.094 3.266,0.08 3.285,0.068 3.312,0.068 c 0.028,0 0.045,0.006 0.059,0.021 0.009,0.008 0.017,0.019 0.02,0.033 l 0.095,0 C 3.483,0.099 3.466,0.066 3.451,0.048 3.416,0.007 3.365,-0.01 3.313,-0.01 3.258,-0.01 3.217,0.01 3.184,0.04 3.143,0.079 3.122,0.137 3.122,0.203 c 0,0.066 0.019,0.124 0.059,0.164 0.031,0.032 0.075,0.052 0.13,0.052 0.06,0 0.116,-0.024 0.149,-0.075 0.03,-0.046 0.037,-0.092 0.035,-0.143 0,0 0,-0.018 0,-0.027 m 0.216,-0.18 c -0.083,0 -0.124,0.048 -0.124,0.126 l 0,0.208 -0.075,0 0,0.081 0.075,0 0,0.103 0.098,0.025 0,-0.128 0.104,0 0,-0.081 -0.104,0 0,-0.199 c 0,-0.031 0.014,-0.044 0.046,-0.044 0.021,0 0.037,0 0.064,0.003 l 0,-0.082 C 3.767,-0.001 3.74,-0.006 3.711,-0.006 M 4.164,0.336 C 4.133,0.336 4.112,0.322 4.098,0.305 4.078,0.277 4.072,0.24 4.072,0.206 4.072,0.17 4.078,0.132 4.098,0.105 4.112,0.088 4.133,0.073 4.164,0.073 c 0.077,0 0.093,0.073 0.093,0.133 0,0.058 -0.016,0.13 -0.093,0.13 M 4.266,0 4.259,0.045 C 4.235,0.007 4.19,-0.009 4.145,-0.009 4.104,-0.009 4.07,0.005 4.044,0.025 3.996,0.065 3.973,0.127 3.973,0.203 c 0,0.081 0.023,0.143 0.072,0.183 0.026,0.02 0.059,0.033 0.101,0.033 0.051,0 0.089,-0.017 0.106,-0.039 l 0,0.188 0.098,0 L 4.35,0 4.266,0 z m 0.41,0.317 C 4.662,0.331 4.642,0.34 4.613,0.34 4.584,0.34 4.559,0.328 4.546,0.309 4.531,0.291 4.525,0.272 4.524,0.245 l 0.177,0 C 4.7,0.276 4.691,0.299 4.676,0.317 m 0.123,-0.143 -0.274,0 C 4.524,0.143 4.535,0.112 4.555,0.094 4.569,0.08 4.589,0.068 4.615,0.068 c 0.028,0 0.045,0.006 0.06,0.021 0.009,0.008 0.016,0.019 0.019,0.033 l 0.095,0 C 4.786,0.099 4.77,0.066 4.755,0.048 4.72,0.007 4.669,-0.01 4.616,-0.01 4.561,-0.01 4.52,0.01 4.487,0.04 4.447,0.079 4.425,0.137 4.425,0.203 c 0,0.066 0.019,0.124 0.059,0.164 0.031,0.032 0.075,0.052 0.13,0.052 0.061,0 0.116,-0.024 0.15,-0.075 C 4.793,0.298 4.801,0.252 4.8,0.201 4.8,0.201 4.799,0.183 4.799,0.174 M -0.579,-1.23 c -0.066,0 -0.111,0.032 -0.111,0.109 l 0,0.464 0.099,0 0,-0.446 c 0,-0.024 0.005,-0.04 0.039,-0.04 0.009,0 0.011,0.001 0.016,0.001 l 0,-0.083 C -0.555,-1.228 -0.559,-1.23 -0.579,-1.23"
         style="fill:#231f20;fill-opacity:1;fill-rule:nonzero;stroke:none"
         id="path2722" />
    </g>
    <g
       id="g2724"
       transform="matrix(155.66819,0,0,-155.66819,1776.6573,362.90688)">
      <path
         inkscape:connector-curvature="0"
         d="m 0,0 -0.026,0.045 c 0.041,0.021 0.052,0.041 0.052,0.081 l -0.058,0 0,0.116 0.115,0 0,-0.108 C 0.083,0.071 0.066,0.028 0,0 m 0.213,0.093 0.099304,0 0,-0.40842 -0.099304,0 0,0.40842 z M 0.21,0.25 l 0.10538,0 0,-0.10138 -0.10538,0 0,0.10138 z m 0.708,-0.566 0,0.254 c 0,0.05 -0.013,0.08 -0.063,0.08 -0.056,0 -0.08,-0.06 -0.08,-0.111 l 0,-0.223 -0.098,0 0,0.254 c 0,0.05 -0.013,0.08 -0.062,0.08 -0.056,0 -0.081,-0.06 -0.081,-0.111 l 0,-0.223 -0.098,0 0,0.408 0.082,0 0.008,-0.054 c 0.022,0.038 0.061,0.065 0.116,0.065 0.058,0 0.097,-0.025 0.117,-0.067 0.025,0.043 0.069,0.067 0.123,0.067 0.088,0 0.133,-0.059 0.133,-0.143 l 0,-0.276 -0.097,0 z m 0.438,0.182 -0.103,-0.009 c -0.031,-0.002 -0.059,-0.02 -0.059,-0.053 0,-0.032 0.027,-0.051 0.058,-0.051 0.061,0 0.104,0.033 0.104,0.094 l 0,0.019 z m 0.083,-0.189 c -0.043,0 -0.066,0.028 -0.069,0.059 -0.019,-0.034 -0.066,-0.062 -0.124,-0.062 -0.098,0 -0.149,0.062 -0.149,0.128 0,0.078 0.061,0.123 0.14,0.128 l 0.119,0.008 0,0.026 c 0,0.039 -0.013,0.064 -0.069,0.064 -0.045,0 -0.072,-0.02 -0.075,-0.058 l -0.094,0 c 0.005,0.092 0.078,0.133 0.169,0.133 0.07,0 0.13,-0.023 0.153,-0.084 0.011,-0.026 0.013,-0.054 0.013,-0.082 l 0,-0.151 c 0,-0.02 0.006,-0.027 0.022,-0.027 0.006,0 0.012,0.002 0.012,0.002 l 0,-0.073 C 1.471,-0.319 1.463,-0.323 1.439,-0.323 m 0.286,0.352 c -0.045,0 -0.073,-0.032 -0.073,-0.076 0,-0.044 0.028,-0.076 0.073,-0.076 0.045,0 0.072,0.032 0.072,0.076 0,0.044 -0.027,0.076 -0.072,0.076 m 0.018,-0.351 -0.078,0 c -0.02,-0.006 -0.036,-0.025 -0.036,-0.05 0,-0.052 0.064,-0.058 0.103,-0.058 0.039,0 0.108,0.003 0.108,0.058 0,0.05 -0.06,0.05 -0.097,0.05 M 1.736,-0.508 c -0.05,0 -0.102,0.005 -0.145,0.034 -0.031,0.023 -0.049,0.051 -0.049,0.09 0,0.035 0.017,0.068 0.049,0.083 -0.027,0.015 -0.041,0.044 -0.041,0.071 0,0.034 0.015,0.061 0.048,0.082 -0.025,0.025 -0.041,0.059 -0.041,0.101 0,0.097 0.076,0.15 0.168,0.15 0.034,0 0.065,-0.01 0.093,-0.025 0.017,0.035 0.048,0.051 0.083,0.051 0.006,0 0.02,0 0.026,-0.002 l 0,-0.075 c -0.002,0 -0.005,0 -0.008,0 -0.022,0 -0.043,-0.007 -0.049,-0.026 0.013,-0.023 0.022,-0.046 0.022,-0.074 0,-0.094 -0.079,-0.148 -0.167,-0.148 -0.023,0 -0.046,0.004 -0.066,0.01 -0.01,-0.005 -0.02,-0.015 -0.02,-0.029 0,-0.024 0.023,-0.029 0.044,-0.029 l 0.067,0 c 0.041,0 0.096,-0.001 0.133,-0.028 0.036,-0.025 0.051,-0.059 0.051,-0.098 0,-0.108 -0.107,-0.138 -0.198,-0.138 M 2.221,0.001 C 2.207,0.015 2.187,0.024 2.158,0.024 2.129,0.024 2.104,0.012 2.091,-0.008 2.076,-0.025 2.07,-0.044 2.069,-0.071 l 0.177,0 C 2.245,-0.04 2.236,-0.017 2.221,0.001 m 0.122,-0.144 -0.273,0 c -10e-4,-0.03 0.01,-0.061 0.03,-0.08 0.014,-0.013 0.034,-0.025 0.06,-0.025 0.029,0 0.045,0.006 0.06,0.02 0.009,0.009 0.016,0.02 0.019,0.034 l 0.095,0 C 2.331,-0.217 2.315,-0.25 2.299,-0.268 2.265,-0.309 2.213,-0.326 2.161,-0.326 c -0.055,0 -0.096,0.02 -0.129,0.05 -0.04,0.039 -0.062,0.096 -0.062,0.163 0,0.066 0.019,0.124 0.059,0.164 0.031,0.032 0.075,0.052 0.13,0.052 0.061,0 0.116,-0.025 0.15,-0.076 0.029,-0.045 0.037,-0.091 0.036,-0.142 0,0 -0.002,-0.018 -0.002,-0.028 M 2.86,-0.134 2.757,-0.143 c -0.031,-0.002 -0.06,-0.02 -0.06,-0.053 0,-0.032 0.028,-0.051 0.059,-0.051 0.061,0 0.104,0.033 0.104,0.094 l 0,0.019 z m 0.083,-0.189 c -0.043,0 -0.066,0.028 -0.07,0.059 -0.018,-0.034 -0.065,-0.062 -0.123,-0.062 -0.099,0 -0.149,0.062 -0.149,0.128 0,0.078 0.062,0.123 0.138,0.128 l 0.121,0.008 0,0.026 c 0,0.039 -0.013,0.064 -0.07,0.064 -0.044,0 -0.071,-0.02 -0.074,-0.058 l -0.094,0 c 0.005,0.092 0.077,0.133 0.168,0.133 0.071,0 0.131,-0.023 0.154,-0.084 0.01,-0.026 0.012,-0.054 0.012,-0.082 l 0,-0.151 c 0,-0.02 0.007,-0.027 0.023,-0.027 0.006,0 0.012,0.002 0.012,0.002 l 0,-0.073 C 2.975,-0.319 2.967,-0.323 2.943,-0.323 m 0.384,0.007 0,0.251 c 0,0.048 -0.015,0.076 -0.068,0.076 C 3.224,0.011 3.202,-0.01 3.189,-0.04 3.174,-0.073 3.175,-0.115 3.175,-0.149 l 0,-0.167 -0.098,0 0,0.408 0.082,0 0.007,-0.052 c 0.025,0.043 0.074,0.063 0.121,0.063 0.087,0 0.138,-0.062 0.138,-0.147 l 0,-0.272 -0.098,0 z m 0.216,0.409 0.099304,0 0,-0.40842 -0.099304,0 0,0.40842 z M 3.54,0.25 l 0.1055,0 0,-0.10138 -0.1055,0 0,0.10138 z m 0.708,-0.566 0,0.254 c 0,0.05 -0.014,0.08 -0.063,0.08 -0.056,0 -0.081,-0.06 -0.081,-0.111 l 0,-0.223 -0.097,0 0,0.254 c 0,0.05 -0.013,0.08 -0.062,0.08 -0.057,0 -0.081,-0.06 -0.081,-0.111 l 0,-0.223 -0.098,0 0,0.408 0.082,0 0.008,-0.054 c 0.022,0.038 0.061,0.065 0.116,0.065 0.058,0 0.097,-0.025 0.117,-0.067 0.025,0.043 0.069,0.067 0.123,0.067 0.088,0 0.133,-0.059 0.133,-0.143 l 0,-0.276 -0.097,0 z M 4.564,0.129 4.533,0.18 4.678,0.288 4.722,0.217 4.564,0.129 z M 4.684,0.001 C 4.671,0.015 4.65,0.024 4.622,0.024 4.592,0.024 4.567,0.012 4.553,-0.007 4.539,-0.025 4.533,-0.044 4.533,-0.071 l 0.176,0 c 0,0.031 -0.01,0.054 -0.025,0.072 m 0.123,-0.143 -0.274,0 c 0,-0.032 0.01,-0.062 0.029,-0.08 0.015,-0.014 0.035,-0.026 0.062,-0.026 0.027,0 0.045,0.006 0.059,0.019 0.008,0.01 0.015,0.021 0.02,0.035 l 0.094,0 C 4.795,-0.218 4.778,-0.25 4.763,-0.27 4.728,-0.309 4.677,-0.327 4.625,-0.327 c -0.056,0 -0.097,0.021 -0.129,0.051 -0.041,0.039 -0.063,0.097 -0.063,0.163 0,0.066 0.02,0.124 0.059,0.164 0.03,0.032 0.074,0.052 0.131,0.052 0.06,0 0.115,-0.024 0.149,-0.076 0.03,-0.045 0.037,-0.091 0.035,-0.142 0,0 0,-0.018 0,-0.027 M 5.121,0.001 C 5.108,0.015 5.088,0.024 5.059,0.024 5.029,0.024 5.005,0.012 4.991,-0.008 4.977,-0.025 4.971,-0.044 4.97,-0.071 l 0.177,0 C 5.146,-0.04 5.137,-0.017 5.121,0.001 m 0.123,-0.144 -0.273,0 c -0.001,-0.03 0.01,-0.061 0.03,-0.08 0.014,-0.013 0.033,-0.025 0.06,-0.025 0.029,0 0.045,0.006 0.059,0.02 0.01,0.009 0.017,0.02 0.02,0.034 l 0.095,0 C 5.232,-0.217 5.216,-0.25 5.2,-0.268 5.165,-0.309 5.114,-0.326 5.062,-0.326 c -0.055,0 -0.096,0.02 -0.129,0.05 -0.04,0.039 -0.062,0.096 -0.062,0.163 0,0.066 0.019,0.124 0.059,0.164 0.031,0.032 0.075,0.052 0.13,0.052 0.06,0 0.116,-0.025 0.149,-0.076 0.03,-0.045 0.037,-0.091 0.036,-0.142 0,0 -0.001,-0.018 -0.001,-0.028"
         style="fill:#231f20;fill-opacity:1;fill-rule:nonzero;stroke:none"
         id="path2726" />
    </g>
  </g>
</svg>
